PathFileType	4	(X/Y/Z)	/Users/itak/Documents/Research/Walk-IL/dataset/trc/00352_00011.trc
DataRate	CameraRate	NumFrames	NumMarkers	Units	OrigDataRate	OrigDataStartFrame	OrigNumFrames
100.000000	100.000000	4	55	mm	100.000000	521	695
Frame#	Time	RPSI			LPSI			STRN			T10			C7			CLAV			RBAK			LBAK			LSHO			LUPA			LAEL			LAOL			LWTS			LWPS			LFRA			LIFD			LHPS			LHTS			RSHO			RUPA			RAEL			RAOL			RWTS			RWPS			RFRA			RIFD			RHTS			RHPS			RBHD			LFHD			RFHD			LBHD			LHIP			RASI			LASI			LKNE			LTHI			LANK			LTIP			LTOE			LMT1			LMT5			LHEE			RKNE			RTHI			RANK			RTIP			RTOE			RMT1			RMT5			RHEE			L3			RHIP			*53			*54			
		X1	Y1	Z1	X2	Y2	Z2	X3	Y3	Z3	X4	Y4	Z4	X5	Y5	Z5	X6	Y6	Z6	X7	Y7	Z7	X8	Y8	Z8	X9	Y9	Z9	X10	Y10	Z10	X11	Y11	Z11	X12	Y12	Z12	X13	Y13	Z13	X14	Y14	Z14	X15	Y15	Z15	X16	Y16	Z16	X17	Y17	Z17	X18	Y18	Z18	X19	Y19	Z19	X20	Y20	Z20	X21	Y21	Z21	X22	Y22	Z22	X23	Y23	Z23	X24	Y24	Z24	X25	Y25	Z25	X26	Y26	Z26	X27	Y27	Z27	X28	Y28	Z28	X29	Y29	Z29	X30	Y30	Z30	X31	Y31	Z31	X32	Y32	Z32	X33	Y33	Z33	X34	Y34	Z34	X35	Y35	Z35	X36	Y36	Z36	X37	Y37	Z37	X38	Y38	Z38	X39	Y39	Z39	X40	Y40	Z40	X41	Y41	Z41	X42	Y42	Z42	X43	Y43	Z43	X44	Y44	Z44	X45	Y45	Z45	X46	Y46	Z46	X47	Y47	Z47	X48	Y48	Z48	X49	Y49	Z49	X50	Y50	Z50	X51	Y51	Z51	X52	Y52	Z52	X53	Y53	Z53	X54	Y54	Z54	X55	Y55	Z55	

522	5.21	676.8677368164062	930.990234375	201.0676727294922	797.5838623046875	948.8121948242188	244.9974060058594	652.6542358398438	1174.034545898438	445.4383850097656	766.252197265625	1122.917602539062	228.5063323974609	760.7129516601562	1364.722778320312	288.9280395507812	672.8909912109375	1302.4169921875	416.5548706054688	731.5270385742188	1229.537353515625	204.3000946044922	853.2048950195312	1327.960571289062	331.4682922363281	853.4793701171875	1345.721801757812	431.7216796875	929.4498901367188	1237.186767578125	466.2560424804688	960.2273559570312	1055.697143554688	555.832763671875	937.6886596679688	1012.616027832031	485.830810546875	899.98681640625	874.2723388671875	727.348876953125	963.8889770507812	854.3684692382812	709.524169921875	968.6121826171875	967.0947875976562	612.6216430664062	897.164794921875	737.1720581054688	807.3995971679688	962.96337890625	792.2924194335938	741.522705078125	916.7781982421875	815.7042236328125	779.6611328125	594.9635009765625	1352.595947265625	248.9471893310547	556.0061645507812	1293.701538085938	195.4119262695312	555.3035278320312	1037.419921875	120.844612121582	639.2593994140625	1028.998657226562	162.1154327392578	517.3894653320312	789.8029174804688	181.4875030517578	498.5242919921875	789.1207275390625	107.1611480712891	534.4418334960938	968.1354370117188	115.3567199707031	527.85400390625	621.4252319335938	150.2016906738281	497.8678588867188	686.1371459960938	167.9695281982422	497.4693298339844	703.322021484375	99.92404937744141	657.5785522460938	1569.535522460938	302.388916015625	641.3203735351562	1552.544677734375	509.8838195800781	569.5768432617188	1553.05029296875	438.2128295898438	777.3593139648438	1568.751708984375	382.7465209960938	873.4888916015625	892.270751953125	357.9173278808594	558.903564453125	903.3538818359375	356.901611328125	778.5460205078125	905.7876586914062	457.2453308105469	890.3435668945312	448.2999877929688	299.3102111816406	882.9317626953125	580.723876953125	335.5506286621094	932.7504272460938	58.81181335449219	99.24675750732422	924.6688232421875	245.0651092529297	204.246337890625	873.4470825195312	31.35426712036133	301.3688354492188	829.7620849609375	22.85915374755859	231.3325042724609	943.1487426757812	36.91738891601562	221.0121002197266	865.8998413085938	56.01592636108398	63.77869033813477	523.6760864257812	439.3777160644531	440.4808349609375	505.0326538085938	682.4988403320312	349.6097717285156	496.3341979980469	54.97600555419922	603.7803955078125	502.4766540527344	344.8933410644531	495.1533203125	384.9449157714844	155.4707794189453	730.3226928710938	448.5344543457031	130.3116607666016	742.322021484375	404.7526245117188	84.05914306640625	642.3715209960938	564.4360961914062	44.92387390136719	612.3082885742188	744.7318725585938	1004.195495605469	223.3870697021484	550.953125	872.4884033203125	244.8822174072266	nan	nan	nan	nan	nan	nan	
523	5.22	672.8395385742188	929.0296630859375	209.3823089599609	793.50439453125	947.58154296875	253.1370391845703	647.8840942382812	1172.712036132812	452.6983337402344	762.39453125	1121.151489257812	236.4047546386719	756.6437377929688	1363.162109375	296.1370849609375	668.1610107421875	1301.1044921875	423.6510314941406	728.0152587890625	1227.712768554688	211.7499084472656	848.9763793945312	1326.513305664062	339.2540893554688	848.7680053710938	1344.342407226562	439.4751892089844	924.2127685546875	1235.595703125	474.4506225585938	953.7479858398438	1054.290283203125	564.9077758789062	931.4447021484375	1010.842224121094	495.1121826171875	890.0125732421875	874.6560668945312	736.8798217773438	954.1336059570312	854.279296875	720.3081665039062	960.985595703125	966.1549682617188	622.4799194335938	884.9657592773438	738.4713134765625	818.1734619140625	952.2007446289062	792.4730834960938	752.7183837890625	905.7479248046875	816.5247192382812	790.02978515625	591.100830078125	1350.822265625	255.3613433837891	552.6807861328125	1291.803100585938	201.6125335693359	553.6445922851562	1035.427734375	127.2522048950195	637.2506103515625	1027.342041015625	169.2396697998047	517.0383911132812	787.622802734375	188.0020294189453	498.1661376953125	786.670654296875	113.6984024047852	533.1302490234375	966.0106201171875	121.7823867797852	529.6287841796875	619.3115234375	157.1426696777344	498.9576721191406	683.6807250976562	174.7581481933594	498.2105102539062	700.679931640625	106.6399917602539	653.803955078125	1568.102905273438	308.6876220703125	635.7673950195312	1551.419067382812	516.0380249023438	564.6619873046875	1551.914672851562	443.7719421386719	772.9131469726562	1567.340942382812	390.0280456542969	869.8782958984375	891.3842163085938	365.9464111328125	555.2251586914062	901.3512573242188	365.5536804199219	775.2863159179688	904.7032470703125	465.790771484375	888.6703491210938	448.0716857910156	305.27490234375	880.7489624023438	580.3243408203125	342.1121520996094	933.3981323242188	61.24332809448242	100.1779403686523	924.044189453125	246.1249847412109	207.8215179443359	873.4446411132812	31.34191703796387	301.4605407714844	829.927734375	23.09777641296387	231.4897766113281	943.3858032226562	37.38272476196289	221.6953430175781	866.6348266601562	58.80037689208984	64.48557281494141	517.2479858398438	438.6593627929688	449.3956298828125	501.0325622558594	681.7299194335938	359.1736145019531	488.628173828125	53.50360107421875	609.7864379882812	495.5056457519531	343.7585144042969	502.8462219238281	374.7913208007812	153.0448913574219	734.7366943359375	438.3654174804688	128.1556549072266	747.7749633789062	396.1952209472656	82.12124633789062	646.786865234375	556.639892578125	43.63879776000977	619.5903930664062	740.689453125	1002.3447265625	231.7185974121094	547.2160034179688	870.3350830078125	253.5543518066406	nan	nan	nan	nan	nan	nan	
524	5.23	668.6614379882812	927.2698364257812	217.8191986083984	789.2745971679688	946.3971557617188	261.4391174316406	642.8558349609375	1171.485717773438	460.0603332519531	758.3930053710938	1119.4248046875	244.4730834960938	752.3519287109375	1361.679321289062	303.4386901855469	663.201904296875	1299.876708984375	430.8113403320312	724.322998046875	1225.955200195312	219.3335418701172	844.5381469726562	1325.165283203125	347.1140747070312	843.8106079101562	1343.052001953125	447.3246459960938	918.6944580078125	1234.057739257812	482.715576171875	947.012451171875	1052.826049804688	573.6969604492188	924.9805297851562	1009.093322753906	504.0524597167969	879.87890625	874.8057861328125	745.8247680664062	944.1781005859375	853.9848022460938	730.5031127929688	953.1805419921875	965.1322631835938	631.9517822265625	872.661865234375	739.4637451171875	828.2281494140625	941.2667236328125	792.4500732421875	763.242431640625	894.5186767578125	817.0852661132812	799.7478637695312	587.0486450195312	1349.100952148438	261.8436889648438	549.1453857421875	1289.967407226562	207.8887634277344	551.6956787109375	1033.50927734375	133.7470397949219	634.95849609375	1025.739135742188	176.4334259033203	516.3079833984375	785.5680541992188	194.7367401123047	497.4317932128906	784.3078002929688	120.4521408081055	531.5081176757812	963.95703125	128.3310546875	530.8661499023438	617.3216552734375	164.4552307128906	499.5788269042969	681.3748168945312	181.8476715087891	498.4776000976562	698.1422119140625	113.6382141113281	649.8627319335938	1566.745971679688	314.9915161132812	630.0760498046875	1550.421142578125	522.1862182617188	559.5694580078125	1550.9130859375	449.3310241699219	768.3070678710938	1565.991333007812	397.2992858886719	866.0347900390625	890.4166870117188	374.1136169433594	551.3426513671875	899.6549682617188	374.3409423828125	771.8602905273438	903.69970703125	474.5701904296875	886.8624267578125	447.7974243164062	311.7410888671875	878.3866577148438	579.8851928710938	349.0346984863281	934.1964721679688	63.95352554321289	101.2789840698242	923.37158203125	247.2456359863281	211.7485504150391	873.4495239257812	31.35937309265137	301.541259765625	830.1184692382812	23.41180038452148	231.6362457275391	943.71435546875	37.91104125976562	222.4650573730469	867.5437622070312	61.8920783996582	65.29255676269531	510.1612854003906	438.2961120605469	458.5782470703125	496.5201721191406	681.7752685546875	369.1103820800781	482.4066162109375	51.36956405639648	614.04443359375	488.4891357421875	342.3648071289062	510.6996154785156	366.4063415527344	148.8697662353516	738.3406982421875	429.9536437988281	124.1841430664062	752.0819091796875	389.23291015625	79.09464263916016	649.8916015625	550.2959594726562	41.81315994262695	624.8701782226562	736.5588989257812	1000.626647949219	240.0997009277344	543.2824096679688	868.58447265625	262.3589782714844	nan	nan	nan	nan	nan	nan	
525	5.24	664.3198852539062	925.7583618164062	226.4336547851562	784.8904418945312	945.2597045898438	269.9539794921875	637.5732421875	1170.375366210938	467.5455322265625	754.257568359375	1117.744140625	252.7198181152344	747.8511352539062	1360.281494140625	310.8314208984375	658.0147705078125	1298.746459960938	438.0404052734375	720.4535522460938	1224.266723632812	227.0562744140625	839.8958129882812	1323.926879882812	355.057373046875	838.61181640625	1341.87158203125	455.2745056152344	912.9112548828125	1232.603759765625	491.0753784179688	940.0325317382812	1051.321899414062	582.2124633789062	918.319091796875	1007.402648925781	512.6453247070312	869.62158203125	874.7155151367188	754.1910400390625	934.0505981445312	853.4736938476562	740.086669921875	945.2130737304688	964.0264282226562	641.0307006835938	860.2601318359375	740.1442260742188	837.5545654296875	930.1889038085938	792.2025146484375	773.0830688476562	883.1270141601562	817.3765869140625	808.817626953125	582.8134765625	1347.436279296875	268.3931884765625	545.4056396484375	1288.191650390625	214.2549285888672	549.4617919921875	1031.66259765625	140.3504791259766	632.415283203125	1024.223876953125	183.6839294433594	515.1725463867188	783.6297607421875	201.6827392578125	496.3148498535156	782.0377197265625	127.4045867919922	529.5787353515625	961.9732666015625	135.0129241943359	531.536376953125	615.4400634765625	172.0928344726562	499.6750183105469	679.2086791992188	189.1945037841797	498.251708984375	695.7200927734375	120.8815078735352	645.75830078125	1565.4677734375	321.2994689941406	624.2457885742188	1549.56298828125	528.3307495117188	554.2955932617188	1550.050048828125	454.88623046875	763.5427856445312	1564.71484375	404.5664672851562	861.9300537109375	889.3475341796875	382.48193359375	547.2202758789062	898.3311157226562	383.2805786132812	768.2039794921875	902.7748413085938	483.5907287597656	884.8505859375	447.4800415039062	318.7480773925781	875.792236328125	579.4044189453125	356.3626403808594	935.1102905273438	66.97786712646484	102.5740432739258	922.6134643554688	248.4555969238281	216.0399322509766	873.4677124023438	31.41200637817383	301.6065673828125	830.3224487304688	23.81111145019531	231.7714691162109	944.1407470703125	38.52365112304688	223.3406982421875	868.5921630859375	65.34337615966797	66.23423767089844	502.65478515625	438.1726989746094	467.8108215332031	491.4671936035156	682.5166625976562	379.2505493164062	477.5597839355469	48.78139114379883	616.9417114257812	481.5675964355469	340.7402648925781	518.6089477539062	359.6090698242188	143.2989196777344	741.3700561523438	423.1090087890625	118.7667236328125	755.5211181640625	383.74365234375	75.22841644287109	652.0255737304688	545.307373046875	39.63916397094727	628.5895385742188	732.3513793945312	999.06005859375	248.5729522705078	539.1172485351562	867.297607421875	271.3116455078125	nan	nan	nan	nan	nan	nan	
